<svg xmlns="http://www.w3.org/2000/svg" xmlns:xlink="http://www.w3.org/1999/xlink" width="1366" zoomAndPan="magnify" viewBox="0 0 1024.5 576" height="768" preserveAspectRatio="xMidYMid meet" version="1.0"><defs><filter x="0%" y="0%" width="100%" height="100%" id="578ea44fdb"><feColorMatrix values="0 0 0 0 1 0 0 0 0 1 0 0 0 0 1 0 0 0 1 0" color-interpolation-filters="sRGB"/></filter><g/><clipPath id="d744561ec3"><path d="M 436.050781 271.980469 L 588.449219 271.980469 L 588.449219 326 L 436.050781 326 Z M 436.050781 271.980469 " clip-rule="nonzero"/></clipPath><clipPath id="8fcb46dc7b"><path d="M 512.25 271.980469 L 588.449219 298.914062 L 512.25 325.84375 L 436.050781 298.914062 L 512.25 271.980469 " clip-rule="nonzero"/></clipPath><clipPath id="625e606371"><path d="M 359.851562 218.117188 L 512.25 218.117188 L 512.25 272 L 359.851562 272 Z M 359.851562 218.117188 " clip-rule="nonzero"/></clipPath><clipPath id="172065cc1a"><path d="M 436.050781 218.117188 L 512.25 245.050781 L 436.050781 271.980469 L 359.851562 245.050781 L 436.050781 218.117188 " clip-rule="nonzero"/></clipPath><clipPath id="9376fbb3fd"><path d="M 512 298.929688 L 588.445312 298.929688 L 588.445312 352.761719 L 512 352.761719 Z M 512 298.929688 " clip-rule="nonzero"/></clipPath><clipPath id="44ed62d76a"><path d="M 588.445312 325.84375 L 588.445312 298.929688 L 512.246094 325.84375 L 512.246094 352.761719 L 588.445312 325.84375 " clip-rule="nonzero"/></clipPath><clipPath id="bf51fa3d1d"><path d="M 436 245.101562 L 512.246094 245.101562 L 512.246094 298.929688 L 436 298.929688 Z M 436 245.101562 " clip-rule="nonzero"/></clipPath><clipPath id="5a4a053365"><path d="M 512.246094 272.015625 L 512.246094 245.101562 L 436.046875 272.015625 L 436.046875 298.929688 L 512.246094 272.015625 " clip-rule="nonzero"/></clipPath><clipPath id="b4a404bff6"><path d="M 436.050781 379.707031 L 588.449219 379.707031 L 588.449219 434 L 436.050781 434 Z M 436.050781 379.707031 " clip-rule="nonzero"/></clipPath><clipPath id="75bbdcfbc1"><path d="M 512.25 379.707031 L 588.449219 406.640625 L 512.25 433.570312 L 436.050781 406.640625 L 512.25 379.707031 " clip-rule="nonzero"/></clipPath><clipPath id="42d4ab4336"><path d="M 436.046875 406.648438 L 512 406.648438 L 512 460.496094 L 436.046875 460.496094 Z M 436.046875 406.648438 " clip-rule="nonzero"/></clipPath><clipPath id="c5dc470608"><path d="M 436.046875 433.574219 L 436.046875 406.648438 L 512.246094 433.574219 L 512.246094 460.496094 L 436.046875 433.574219 " clip-rule="nonzero"/></clipPath><clipPath id="0f76a6d941"><path d="M 512.25 325.84375 L 664.648438 325.84375 L 664.648438 380 L 512.25 380 Z M 512.25 325.84375 " clip-rule="nonzero"/></clipPath><clipPath id="9252349860"><path d="M 588.449219 325.84375 L 664.648438 352.777344 L 588.449219 379.707031 L 512.25 352.777344 L 588.449219 325.84375 " clip-rule="nonzero"/></clipPath><clipPath id="093d4c020b"><path d="M 512.246094 352.777344 L 588 352.777344 L 588 406.625 L 512.246094 406.625 Z M 512.246094 352.777344 " clip-rule="nonzero"/></clipPath><clipPath id="29d8ed0099"><path d="M 512.246094 379.699219 L 512.246094 352.777344 L 588.445312 379.699219 L 588.445312 406.625 L 512.246094 379.699219 " clip-rule="nonzero"/></clipPath><clipPath id="ff8e7630f6"><path d="M 436.050781 164.453125 L 588.449219 164.453125 L 588.449219 219 L 436.050781 219 Z M 436.050781 164.453125 " clip-rule="nonzero"/></clipPath><clipPath id="5e3607a669"><path d="M 512.25 164.453125 L 588.449219 191.382812 L 512.25 218.316406 L 436.050781 191.382812 L 512.25 164.453125 " clip-rule="nonzero"/></clipPath><clipPath id="3c55d85348"><path d="M 436.046875 191.386719 L 512 191.386719 L 512 245.230469 L 436.046875 245.230469 Z M 436.046875 191.386719 " clip-rule="nonzero"/></clipPath><clipPath id="14a0ecc85b"><path d="M 436.046875 218.308594 L 436.046875 191.386719 L 512.246094 218.308594 L 512.246094 245.230469 L 436.046875 218.308594 " clip-rule="nonzero"/></clipPath><clipPath id="70b72bb45c"><path d="M 512.25 100 L 588 100 L 588 191.371094 L 512.25 191.371094 Z M 512.25 100 " clip-rule="nonzero"/></clipPath><clipPath id="114abb85f7"><path d="M 512.25 164.449219 L 512.25 100.078125 L 588.449219 127.003906 L 588.449219 191.371094 L 512.25 164.449219 " clip-rule="nonzero"/></clipPath><mask id="fd6c01924a"><g filter="url(#578ea44fdb)"><rect x="-102.45" width="1229.4" fill="#000000" y="-57.6" height="691.2" fill-opacity="0.098"/></g></mask><clipPath id="a289cf0c91"><path d="M 1.046875 0.386719 L 77 0.386719 L 77 54.230469 L 1.046875 54.230469 Z M 1.046875 0.386719 " clip-rule="nonzero"/></clipPath><clipPath id="b0c06f9516"><path d="M 1.046875 27.308594 L 1.046875 0.386719 L 77.246094 27.308594 L 77.246094 54.230469 L 1.046875 27.308594 " clip-rule="nonzero"/></clipPath><clipPath id="33a1e9f87d"><rect x="0" width="79" y="0" height="55"/></clipPath><mask id="b78f8d554f"><g filter="url(#578ea44fdb)"><rect x="-102.45" width="1229.4" fill="#000000" y="-57.6" height="691.2" fill-opacity="0.098"/></g></mask><clipPath id="184d479a75"><path d="M 2 0.929688 L 78.445312 0.929688 L 78.445312 54.761719 L 2 54.761719 Z M 2 0.929688 " clip-rule="nonzero"/></clipPath><clipPath id="55da6134b2"><path d="M 78.445312 27.84375 L 78.445312 0.929688 L 2.246094 27.84375 L 2.246094 54.761719 L 78.445312 27.84375 " clip-rule="nonzero"/></clipPath><clipPath id="4a5af51f0f"><rect x="0" width="79" y="0" height="55"/></clipPath><mask id="093d4c2609"><g filter="url(#578ea44fdb)"><rect x="-102.45" width="1229.4" fill="#000000" y="-57.6" height="691.2" fill-opacity="0.098"/></g></mask><clipPath id="f377b9bf79"><path d="M 2 0.957031 L 78.246094 0.957031 L 78.246094 54.785156 L 2 54.785156 Z M 2 0.957031 " clip-rule="nonzero"/></clipPath><clipPath id="505eafbd02"><path d="M 78.246094 27.871094 L 78.246094 0.957031 L 2.046875 27.871094 L 2.046875 54.785156 L 78.246094 27.871094 " clip-rule="nonzero"/></clipPath><clipPath id="40c983f43f"><rect x="0" width="79" y="0" height="55"/></clipPath><mask id="27f00060eb"><g filter="url(#578ea44fdb)"><rect x="-102.45" width="1229.4" fill="#000000" y="-57.6" height="691.2" fill-opacity="0.098"/></g></mask><clipPath id="53a4af4e63"><path d="M 1.046875 0.648438 L 77 0.648438 L 77 54.496094 L 1.046875 54.496094 Z M 1.046875 0.648438 " clip-rule="nonzero"/></clipPath><clipPath id="aba9c0dbd1"><path d="M 1.046875 27.574219 L 1.046875 0.648438 L 77.246094 27.574219 L 77.246094 54.496094 L 1.046875 27.574219 " clip-rule="nonzero"/></clipPath><clipPath id="55deac4cc2"><rect x="0" width="79" y="0" height="55"/></clipPath><clipPath id="fa62ff8e1f"><path d="M 359 459 L 438 459 L 438 575.859375 L 359 575.859375 Z M 359 459 " clip-rule="nonzero"/></clipPath><mask id="449c3d9620"><g filter="url(#578ea44fdb)"><rect x="-102.45" width="1229.4" fill="#000000" y="-57.6" height="691.2" fill-opacity="0.098"/></g></mask><clipPath id="76b5d9a458"><path d="M 0.851562 2 L 77 2 L 77 116.859375 L 0.851562 116.859375 Z M 0.851562 2 " clip-rule="nonzero"/></clipPath><clipPath id="6fbdea2cc8"><path d="M 0.851562 150.195312 L 0.851562 1.503906 L 77.050781 28.429688 L 77.050781 177.117188 L 0.851562 150.195312 " clip-rule="nonzero"/></clipPath><clipPath id="b17b488de9"><rect x="0" width="79" y="0" height="117"/></clipPath><mask id="481a80ea02"><g filter="url(#578ea44fdb)"><rect x="-102.45" width="1229.4" fill="#000000" y="-57.6" height="691.2" fill-opacity="0.098"/></g></mask><clipPath id="4808ed69ba"><path d="M 0.246094 0.777344 L 76 0.777344 L 76 54.625 L 0.246094 54.625 Z M 0.246094 0.777344 " clip-rule="nonzero"/></clipPath><clipPath id="6c4d06b60c"><path d="M 0.246094 27.699219 L 0.246094 0.777344 L 76.445312 27.699219 L 76.445312 54.625 L 0.246094 27.699219 " clip-rule="nonzero"/></clipPath><clipPath id="cb5647ee63"><rect x="0" width="78" y="0" height="55"/></clipPath><mask id="8f4ea2a86a"><g filter="url(#578ea44fdb)"><rect x="-102.45" width="1229.4" fill="#000000" y="-57.6" height="691.2" fill-opacity="0.098"/></g></mask><clipPath id="b24c7d2122"><path d="M 0.246094 2 L 76 2 L 76 93.386719 L 0.246094 93.386719 Z M 0.246094 2 " clip-rule="nonzero"/></clipPath><clipPath id="f9e3701c0e"><path d="M 0.246094 66.464844 L 0.246094 2.078125 L 76.445312 29 L 76.445312 93.386719 L 0.246094 66.464844 " clip-rule="nonzero"/></clipPath><clipPath id="7027491970"><rect x="0" width="78" y="0" height="94"/></clipPath><clipPath id="ac94b10edf"><path d="M 512 0.140625 L 590 0.140625 L 590 120 L 512 120 Z M 512 0.140625 " clip-rule="nonzero"/></clipPath><mask id="03a5f97574"><g filter="url(#578ea44fdb)"><rect x="-102.45" width="1229.4" fill="#000000" y="-57.6" height="691.2" fill-opacity="0.098"/></g></mask><clipPath id="8dd85446b9"><path d="M 0.25 0.140625 L 76 0.140625 L 76 119.34375 L 0.25 119.34375 Z M 0.25 0.140625 " clip-rule="nonzero"/></clipPath><clipPath id="61c8f70c2b"><path d="M 0.25 92.421875 L 0.25 -39.558594 L 76.449219 -12.632812 L 76.449219 119.34375 L 0.25 92.421875 " clip-rule="nonzero"/></clipPath><clipPath id="eae9dbf3c1"><rect x="0" width="78" y="0" height="120"/></clipPath><clipPath id="adeb8aa927"><path d="M 359.851562 433.578125 L 512.25 433.578125 L 512.25 488 L 359.851562 488 Z M 359.851562 433.578125 " clip-rule="nonzero"/></clipPath><clipPath id="2cb6524893"><path d="M 436.050781 433.578125 L 512.25 460.511719 L 436.050781 487.441406 L 359.851562 460.511719 L 436.050781 433.578125 " clip-rule="nonzero"/></clipPath><clipPath id="373794517a"><path d="M 436 458.441406 L 512.246094 458.441406 L 512.246094 512.269531 L 436 512.269531 Z M 436 458.441406 " clip-rule="nonzero"/></clipPath><clipPath id="4393b9cf15"><path d="M 512.246094 485.355469 L 512.246094 458.441406 L 436.046875 485.355469 L 436.046875 512.269531 L 512.246094 485.355469 " clip-rule="nonzero"/></clipPath><mask id="896e123c37"><g filter="url(#578ea44fdb)"><rect x="-102.45" width="1229.4" fill="#000000" y="-57.6" height="691.2" fill-opacity="0.098"/></g></mask><clipPath id="5449d4fc56"><path d="M 2 0.699219 L 78.246094 0.699219 L 78.246094 54.527344 L 2 54.527344 Z M 2 0.699219 " clip-rule="nonzero"/></clipPath><clipPath id="d03e5334ac"><path d="M 78.246094 27.613281 L 78.246094 0.699219 L 2.046875 27.613281 L 2.046875 54.527344 L 78.246094 27.613281 " clip-rule="nonzero"/></clipPath><clipPath id="cc30f1d065"><rect x="0" width="79" y="0" height="55"/></clipPath></defs><g clip-path="url(#d744561ec3)"><g clip-path="url(#8fcb46dc7b)"><path fill="#ff5757" d="M 436.050781 271.980469 L 588.449219 271.980469 L 588.449219 326.75 L 436.050781 326.75 Z M 436.050781 271.980469 " fill-opacity="1" fill-rule="nonzero"/></g></g><g clip-path="url(#625e606371)"><g clip-path="url(#172065cc1a)"><path fill="#cb6ce6" d="M 359.851562 218.117188 L 512.25 218.117188 L 512.25 272.886719 L 359.851562 272.886719 Z M 359.851562 218.117188 " fill-opacity="1" fill-rule="nonzero"/></g></g><g clip-path="url(#9376fbb3fd)"><g clip-path="url(#44ed62d76a)"><path fill="#ff5757" d="M 588.445312 298.929688 L 588.445312 352.761719 L 512.746094 352.761719 L 512.746094 298.929688 Z M 588.445312 298.929688 " fill-opacity="1" fill-rule="nonzero"/></g></g><g clip-path="url(#bf51fa3d1d)"><g clip-path="url(#5a4a053365)"><path fill="#cb6ce6" d="M 512.246094 245.101562 L 512.246094 298.929688 L 436.546875 298.929688 L 436.546875 245.101562 Z M 512.246094 245.101562 " fill-opacity="1" fill-rule="nonzero"/></g></g><g clip-path="url(#b4a404bff6)"><g clip-path="url(#75bbdcfbc1)"><path fill="#ffbd59" d="M 436.050781 379.707031 L 588.449219 379.707031 L 588.449219 434.476562 L 436.050781 434.476562 Z M 436.050781 379.707031 " fill-opacity="1" fill-rule="nonzero"/></g></g><g clip-path="url(#42d4ab4336)"><g clip-path="url(#c5dc470608)"><path fill="#ffbd59" d="M 436.046875 460.496094 L 436.046875 406.648438 L 511.769531 406.648438 L 511.769531 460.496094 Z M 436.046875 460.496094 " fill-opacity="1" fill-rule="nonzero"/></g></g><g clip-path="url(#0f76a6d941)"><g clip-path="url(#9252349860)"><path fill="#ff914d" d="M 512.25 325.84375 L 664.648438 325.84375 L 664.648438 380.613281 L 512.25 380.613281 Z M 512.25 325.84375 " fill-opacity="1" fill-rule="nonzero"/></g></g><g clip-path="url(#093d4c020b)"><g clip-path="url(#29d8ed0099)"><path fill="#ff914d" d="M 512.246094 406.625 L 512.246094 352.777344 L 587.96875 352.777344 L 587.96875 406.625 Z M 512.246094 406.625 " fill-opacity="1" fill-rule="nonzero"/></g></g><g clip-path="url(#ff8e7630f6)"><g clip-path="url(#5e3607a669)"><path fill="#8c52ff" d="M 436.050781 164.453125 L 588.449219 164.453125 L 588.449219 219.222656 L 436.050781 219.222656 Z M 436.050781 164.453125 " fill-opacity="1" fill-rule="nonzero"/></g></g><g clip-path="url(#3c55d85348)"><g clip-path="url(#14a0ecc85b)"><path fill="#8c52ff" d="M 436.046875 245.230469 L 436.046875 191.386719 L 511.769531 191.386719 L 511.769531 245.230469 Z M 436.046875 245.230469 " fill-opacity="1" fill-rule="nonzero"/></g></g><g clip-path="url(#70b72bb45c)"><g clip-path="url(#114abb85f7)"><path fill="#8c52ff" d="M 512.25 191.371094 L 512.25 100.507812 L 587.972656 100.507812 L 587.972656 191.371094 Z M 512.25 191.371094 " fill-opacity="1" fill-rule="nonzero"/></g></g><g fill="#ffffff" fill-opacity="1"><g transform="translate(506.92902, 411.221426)"><g><path d="M 9.71875 -4.015625 C 9.71875 -2.679688 9.289062 -1.632812 8.4375 -0.875 C 7.59375 -0.125 6.367188 0.25 4.765625 0.25 C 2.765625 0.25 1.320312 -0.421875 0.4375 -1.765625 L 2.421875 -3.15625 C 2.867188 -2.363281 3.640625 -1.96875 4.734375 -1.96875 C 6.359375 -1.96875 7.171875 -2.671875 7.171875 -4.078125 C 7.171875 -4.660156 6.957031 -5.117188 6.53125 -5.453125 C 6.101562 -5.796875 5.507812 -5.96875 4.75 -5.96875 C 3.9375 -5.96875 3.316406 -5.75 2.890625 -5.3125 L 1.15625 -5.3125 L 1.875 -12.234375 L 9.03125 -12.234375 L 9.03125 -9.953125 L 3.875 -9.953125 L 3.625 -7.796875 C 4.1875 -8.023438 4.804688 -8.140625 5.484375 -8.140625 C 6.796875 -8.140625 7.828125 -7.789062 8.578125 -7.09375 C 9.335938 -6.394531 9.71875 -5.367188 9.71875 -4.015625 Z M 9.71875 -4.015625 "/></g></g></g><g fill="#ffffff" fill-opacity="1"><g transform="translate(582.791794, 357.349876)"><g><path d="M 9.078125 -2.015625 L 9.078125 0 L 6.703125 0 L 6.703125 -2.015625 L 0.5625 -2.015625 L 0.5625 -4.3125 L 6.53125 -12.234375 L 9.078125 -12.234375 L 9.078125 -4.15625 L 10.578125 -4.15625 L 10.578125 -2.015625 Z M 6.703125 -8.953125 L 2.984375 -4.15625 L 6.703125 -4.15625 Z M 6.703125 -8.953125 "/></g></g></g><g fill="#ffffff" fill-opacity="1"><g transform="translate(506.92902, 303.620526)"><g><path d="M 9.328125 -3.4375 C 9.328125 -2.1875 8.914062 -1.257812 8.09375 -0.65625 C 7.269531 -0.0507812 6.140625 0.25 4.703125 0.25 C 3.671875 0.25 2.800781 0.0664062 2.09375 -0.296875 C 1.382812 -0.671875 0.878906 -1.144531 0.578125 -1.71875 L 2.59375 -3.09375 C 2.8125 -2.757812 3.082031 -2.488281 3.40625 -2.28125 C 3.726562 -2.070312 4.171875 -1.96875 4.734375 -1.96875 C 5.429688 -1.96875 5.941406 -2.101562 6.265625 -2.375 C 6.585938 -2.644531 6.75 -3.0625 6.75 -3.625 C 6.75 -4.75 6 -5.3125 4.5 -5.3125 L 3.421875 -5.3125 L 3.421875 -7.453125 L 4.359375 -7.453125 C 5.109375 -7.453125 5.65625 -7.597656 6 -7.890625 C 6.34375 -8.191406 6.515625 -8.578125 6.515625 -9.046875 C 6.515625 -9.390625 6.390625 -9.675781 6.140625 -9.90625 C 5.890625 -10.132812 5.484375 -10.25 4.921875 -10.25 C 4.359375 -10.25 3.90625 -10.160156 3.5625 -9.984375 C 3.226562 -9.804688 2.9375 -9.535156 2.6875 -9.171875 L 0.703125 -10.5625 C 1.191406 -11.21875 1.773438 -11.703125 2.453125 -12.015625 C 3.140625 -12.328125 4.023438 -12.484375 5.109375 -12.484375 C 5.921875 -12.484375 6.628906 -12.351562 7.234375 -12.09375 C 7.847656 -11.84375 8.3125 -11.488281 8.625 -11.03125 C 8.9375 -10.582031 9.09375 -10.066406 9.09375 -9.484375 C 9.09375 -7.878906 8.269531 -6.875 6.625 -6.46875 C 7.4375 -6.414062 8.085938 -6.113281 8.578125 -5.5625 C 9.078125 -5.007812 9.328125 -4.300781 9.328125 -3.4375 Z M 9.328125 -3.4375 "/></g></g></g><g fill="#ffffff" fill-opacity="1"><g transform="translate(430.72954, 249.829241)"><g><path d="M 0.9375 0 L 0.9375 -2.078125 C 1.894531 -2.890625 2.769531 -3.660156 3.5625 -4.390625 C 4.351562 -5.128906 4.960938 -5.742188 5.390625 -6.234375 C 5.816406 -6.722656 6.148438 -7.1875 6.390625 -7.625 C 6.628906 -8.070312 6.75 -8.539062 6.75 -9.03125 C 6.75 -9.414062 6.601562 -9.71875 6.3125 -9.9375 C 6.03125 -10.164062 5.632812 -10.28125 5.125 -10.28125 C 4.570312 -10.28125 4.125 -10.148438 3.78125 -9.890625 C 3.4375 -9.640625 3.148438 -9.34375 2.921875 -9 L 0.90625 -10.40625 C 1.40625 -11.15625 1.992188 -11.6875 2.671875 -12 C 3.359375 -12.320312 4.21875 -12.484375 5.25 -12.484375 C 6.507812 -12.484375 7.503906 -12.1875 8.234375 -11.59375 C 8.960938 -11.007812 9.328125 -10.1875 9.328125 -9.125 C 9.328125 -8.332031 9.179688 -7.640625 8.890625 -7.046875 C 8.609375 -6.460938 8.203125 -5.890625 7.671875 -5.328125 C 7.140625 -4.773438 6.484375 -4.160156 5.703125 -3.484375 C 4.921875 -2.816406 4.4375 -2.414062 4.25 -2.28125 L 9.71875 -2.28125 L 9.71875 0 Z M 0.9375 0 "/></g></g></g><g fill="#ffffff" fill-opacity="1"><g transform="translate(506.592241, 195.982919)"><g><path d="M 5.15625 0 L 5.15625 -8.203125 L 2.1875 -8.203125 L 2.1875 -9.875 C 3.039062 -9.925781 3.679688 -10.023438 4.109375 -10.171875 C 4.546875 -10.328125 4.890625 -10.5625 5.140625 -10.875 C 5.398438 -11.195312 5.601562 -11.648438 5.75 -12.234375 L 7.65625 -12.234375 L 7.65625 0 Z M 5.15625 0 "/></g></g></g><g mask="url(#fd6c01924a)"><g transform="matrix(1, 0, 0, 1, 435, 191)"><g clip-path="url(#33a1e9f87d)"><g clip-path="url(#a289cf0c91)"><g clip-path="url(#b0c06f9516)"><path fill="#000000" d="M 1.046875 54.230469 L 1.046875 0.386719 L 76.769531 0.386719 L 76.769531 54.230469 Z M 1.046875 54.230469 " fill-opacity="1" fill-rule="nonzero"/></g></g></g></g></g><g mask="url(#b78f8d554f)"><g transform="matrix(1, 0, 0, 1, 510, 298)"><g clip-path="url(#4a5af51f0f)"><g clip-path="url(#184d479a75)"><g clip-path="url(#55da6134b2)"><path fill="#000000" d="M 78.445312 0.929688 L 78.445312 54.761719 L 2.746094 54.761719 L 2.746094 0.929688 Z M 78.445312 0.929688 " fill-opacity="1" fill-rule="nonzero"/></g></g></g></g></g><g mask="url(#093d4c2609)"><g transform="matrix(1, 0, 0, 1, 434, 245)"><g clip-path="url(#40c983f43f)"><g clip-path="url(#f377b9bf79)"><g clip-path="url(#505eafbd02)"><path fill="#000000" d="M 78.246094 0.957031 L 78.246094 54.785156 L 2.546875 54.785156 L 2.546875 0.957031 Z M 78.246094 0.957031 " fill-opacity="1" fill-rule="nonzero"/></g></g></g></g></g><g mask="url(#27f00060eb)"><g transform="matrix(1, 0, 0, 1, 435, 406)"><g clip-path="url(#55deac4cc2)"><g clip-path="url(#53a4af4e63)"><g clip-path="url(#aba9c0dbd1)"><path fill="#000000" d="M 1.046875 54.496094 L 1.046875 0.648438 L 76.769531 0.648438 L 76.769531 54.496094 Z M 1.046875 54.496094 " fill-opacity="1" fill-rule="nonzero"/></g></g></g></g></g><g clip-path="url(#fa62ff8e1f)"><g mask="url(#449c3d9620)"><g transform="matrix(1, 0, 0, 1, 359, 459)"><g clip-path="url(#b17b488de9)"><g clip-path="url(#76b5d9a458)"><g clip-path="url(#6fbdea2cc8)"><path fill="#000000" d="M 0.851562 177.117188 L 0.851562 2.117188 L 76.570312 2.117188 L 76.570312 177.117188 Z M 0.851562 177.117188 " fill-opacity="1" fill-rule="nonzero"/></g></g></g></g></g></g><g mask="url(#481a80ea02)"><g transform="matrix(1, 0, 0, 1, 512, 352)"><g clip-path="url(#cb5647ee63)"><g clip-path="url(#4808ed69ba)"><g clip-path="url(#6c4d06b60c)"><path fill="#000000" d="M 0.246094 54.625 L 0.246094 0.777344 L 75.96875 0.777344 L 75.96875 54.625 Z M 0.246094 54.625 " fill-opacity="1" fill-rule="nonzero"/></g></g></g></g></g><g mask="url(#8f4ea2a86a)"><g transform="matrix(1, 0, 0, 1, 512, 98)"><g clip-path="url(#7027491970)"><g clip-path="url(#b24c7d2122)"><g clip-path="url(#f9e3701c0e)"><path fill="#000000" d="M 0.246094 93.386719 L 0.246094 2.519531 L 75.96875 2.519531 L 75.96875 93.386719 Z M 0.246094 93.386719 " fill-opacity="1" fill-rule="nonzero"/></g></g></g></g></g><g clip-path="url(#ac94b10edf)"><g mask="url(#03a5f97574)"><g transform="matrix(1, 0, 0, 1, 512, 0.000000000000055289)"><g clip-path="url(#eae9dbf3c1)"><g clip-path="url(#8dd85446b9)"><g clip-path="url(#61c8f70c2b)"><path fill="#000000" d="M 0.25 119.34375 L 0.25 -38.828125 L 75.96875 -38.828125 L 75.96875 119.34375 Z M 0.25 119.34375 " fill-opacity="1" fill-rule="nonzero"/></g></g></g></g></g></g><g clip-path="url(#adeb8aa927)"><g clip-path="url(#2cb6524893)"><path fill="#cb6ce6" d="M 359.851562 433.578125 L 512.25 433.578125 L 512.25 488.347656 L 359.851562 488.347656 Z M 359.851562 433.578125 " fill-opacity="1" fill-rule="nonzero"/></g></g><g clip-path="url(#373794517a)"><g clip-path="url(#4393b9cf15)"><path fill="#cb6ce6" d="M 512.246094 458.441406 L 512.246094 512.269531 L 436.546875 512.269531 L 436.546875 458.441406 Z M 512.246094 458.441406 " fill-opacity="1" fill-rule="nonzero"/></g></g><g mask="url(#896e123c37)"><g transform="matrix(1, 0, 0, 1, 434, 459)"><g clip-path="url(#cc30f1d065)"><g clip-path="url(#5449d4fc56)"><g clip-path="url(#d03e5334ac)"><path fill="#000000" d="M 78.246094 0.699219 L 78.246094 54.527344 L 2.546875 54.527344 L 2.546875 0.699219 Z M 78.246094 0.699219 " fill-opacity="1" fill-rule="nonzero"/></g></g></g></g></g><g fill="#ffffff" fill-opacity="1"><g transform="translate(430.72954, 470.189032)"><g><path d="M 5.5 0.25 C 4.03125 0.25 2.894531 -0.234375 2.09375 -1.203125 C 1.289062 -2.179688 0.890625 -3.570312 0.890625 -5.375 C 0.890625 -7.675781 1.320312 -9.4375 2.1875 -10.65625 C 3.050781 -11.875 4.3125 -12.484375 5.96875 -12.484375 C 7.539062 -12.484375 8.707031 -12.148438 9.46875 -11.484375 L 8.046875 -9.5625 C 7.753906 -9.820312 7.445312 -10.015625 7.125 -10.140625 C 6.800781 -10.273438 6.414062 -10.34375 5.96875 -10.34375 C 5.175781 -10.34375 4.597656 -10.070312 4.234375 -9.53125 C 3.867188 -8.988281 3.640625 -8.21875 3.546875 -7.21875 C 4.015625 -7.53125 4.4375 -7.75 4.8125 -7.875 C 5.1875 -8 5.632812 -8.0625 6.15625 -8.0625 C 7.300781 -8.0625 8.207031 -7.707031 8.875 -7 C 9.550781 -6.300781 9.890625 -5.289062 9.890625 -3.96875 C 9.890625 -2.65625 9.492188 -1.625 8.703125 -0.875 C 7.921875 -0.125 6.851562 0.25 5.5 0.25 Z M 5.515625 -1.875 C 6.078125 -1.875 6.53125 -2.019531 6.875 -2.3125 C 7.226562 -2.613281 7.40625 -3.144531 7.40625 -3.90625 C 7.40625 -4.53125 7.226562 -5.023438 6.875 -5.390625 C 6.53125 -5.765625 6.066406 -5.953125 5.484375 -5.953125 C 5.023438 -5.953125 4.617188 -5.875 4.265625 -5.71875 C 3.921875 -5.570312 3.65625 -5.425781 3.46875 -5.28125 C 3.46875 -4.382812 3.535156 -3.722656 3.671875 -3.296875 C 3.804688 -2.867188 4.019531 -2.523438 4.3125 -2.265625 C 4.613281 -2.003906 5.015625 -1.875 5.515625 -1.875 Z M 5.515625 -1.875 "/></g></g></g></svg>